<svg width="100" height="100" fill="none" xmlns="http://www.w3.org/2000/svg"><g clip-path="url(#clip0_3702_205)"><path d="M49.996 99.993c27.613 0 49.997-22.384 49.997-49.996C99.993 22.383 77.609 0 49.997 0 22.383 0 0 22.384 0 49.996 0 77.61 22.384 99.993 49.996 99.993z" fill="#00034B" fill-opacity=".5"/><path d="M87.7 56.125C91.08 35.302 76.94 15.68 56.117 12.3 35.294 8.92 15.674 23.06 12.294 43.883c-3.38 20.823 10.76 40.444 31.583 43.824C64.7 91.088 84.32 76.948 87.7 56.125z" fill="#FFF500"/><path d="M56.944 81.252c-21.093 0-38.196-17.103-38.196-38.197 0-8.773 2.97-16.852 7.947-23.308-9.05 6.983-14.888 17.936-14.888 30.25 0 21.093 17.103 38.196 38.197 38.196 12.32 0 23.266-5.837 30.249-14.888a38.014 38.014 0 01-23.309 7.947z" fill="#FFF500"/><path d="M66 60.434L55.563 49.998 66 39.566 60.434 34 49.998 44.432 39.566 34 34 39.566l10.432 10.432L34 60.434 39.566 66l10.432-10.437L60.434 66 66 60.434z" fill="#000"/></g><defs><clipPath id="clip0_3702_205"><rect width="100" height="100" rx="30" fill="#fff"/></clipPath></defs></svg>